<svg width="21" height="17" viewBox="0 0 21 17" fill="none" xmlns="http://www.w3.org/2000/svg">
<path d="M20.8333 8.08334C18.7292 3.19792 14.7708 0.166672 10.5 0.166672C6.22918 0.166672 2.27084 3.19792 0.166675 8.08334C0.109318 8.21476 0.0797119 8.35661 0.0797119 8.5C0.0797119 8.6434 0.109318 8.78525 0.166675 8.91667C2.27084 13.8021 6.22918 16.8333 10.5 16.8333C14.7708 16.8333 18.7292 13.8021 20.8333 8.91667C20.8907 8.78525 20.9203 8.6434 20.9203 8.5C20.9203 8.35661 20.8907 8.21476 20.8333 8.08334ZM10.5 14.75C7.19792 14.75 4.07292 12.3646 2.27084 8.5C4.07292 4.63542 7.19792 2.25 10.5 2.25C13.8021 2.25 16.9271 4.63542 18.7292 8.5C16.9271 12.3646 13.8021 14.75 10.5 14.75ZM10.5 4.33334C9.67592 4.33334 8.87034 4.57771 8.18513 5.03555C7.49993 5.49339 6.96588 6.14413 6.65051 6.90549C6.33514 7.66685 6.25263 8.50463 6.4134 9.31288C6.57417 10.1211 6.97101 10.8636 7.55373 11.4463C8.13645 12.029 8.87888 12.4258 9.68713 12.5866C10.4954 12.7474 11.3332 12.6649 12.0945 12.3495C12.8559 12.0341 13.5066 11.5001 13.9645 10.8149C14.4223 10.1297 14.6667 9.32409 14.6667 8.5C14.6667 7.39494 14.2277 6.33513 13.4463 5.55373C12.6649 4.77232 11.6051 4.33334 10.5 4.33334ZM10.5 10.5833C10.088 10.5833 9.68517 10.4612 9.34257 10.2322C8.99997 10.0033 8.73294 9.67794 8.57526 9.29726C8.41758 8.91658 8.37632 8.49769 8.45671 8.09357C8.53709 7.68944 8.73551 7.31822 9.02687 7.02687C9.31823 6.73551 9.68944 6.53709 10.0936 6.4567C10.4977 6.37632 10.9166 6.41757 11.2973 6.57525C11.6779 6.73294 12.0033 6.99996 12.2322 7.34257C12.4612 7.68517 12.5833 8.08796 12.5833 8.5C12.5833 9.05254 12.3638 9.58244 11.9731 9.97314C11.5824 10.3638 11.0525 10.5833 10.5 10.5833Z" fill="#050522"/>
</svg>
